Patient4_TMGait_0pt4_02_right_03_GRF.mot
version=1
nRows=58
nColumns=19
inDegrees=no
endheader
time	F1x	F1y	F1z	M1x	M1y	M1z	F2x	F2y	F2z	M2x	M2y	M2z	EC1x	EC1y	EC1z	EC2x	EC2y	EC2z
3.26	0.74907	758.9925	81.3136	-256.9886	-82.2522	830.6615	-8.3781	-18.626	-1.4797	-3.7783	3.0153	-17.1285	-0.0592	0.0182	-0.0073	-0.0462	0.0165	0.9585
3.2736	-0.15724	748.9037	77.3957	-252.8929	-78.8345	818.3985	-5.581	-11.7041	-1.0384	-2.2212	2.0816	-10.5441	-0.0592	0.0182	-0.0073	-0.0462	0.0165	0.9585
3.2871	-0.48981	739.1137	73.8278	-248.8903	-75.4797	805.9886	-3.2516	-5.8676	-0.64357	-0.90766	1.2828	-4.9746	-0.0592	0.0182	-0.0073	-0.0462	0.0165	0.9585
3.3007	-0.1691	730.8056	70.7252	-245.4822	-72.2601	794.6623	-1.5131	-1.4192	-0.32191	0.09545	0.66323	-0.70972	-0.0592	0.0182	-0.0073	-0.0462	0.0165	0.9585
3.3143	0.8105	725.0074	68.0774	-243.1052	-69.1689	785.4914	-0.34444	1.6726	-0.092079	0.79391	0.23574	2.2735	-0.0592	0.0182	-0.0073	-0.0462	0.0165	0.9585
3.3279	2.3946	722.4642	65.8009	-242.0754	-66.1575	779.2615	0.34313	3.6142	0.063117	1.233	-0.032225	4.1653	-0.0592	0.0182	-0.0073	-0.0462	0.0165	0.9585
3.3414	4.5129	723.5522	63.8293	-242.551	-63.2019	776.3855	0.65175	4.6471	0.15113	1.4634	-0.16631	5.1803	-0.0592	0.0182	-0.0073	-0.0462	0.0165	0.9585
3.355	7.0995	728.246	62.1136	-244.5213	-60.2904	776.8623	0.68665	4.9974	0.19477	1.5305	-0.20503	5.5132	-0.0592	0.0182	-0.0073	-0.0462	0.0165	0.9585
3.3686	10.0948	736.105	60.6317	-247.8072	-57.4348	780.2543	0.54426	4.8353	0.20371	1.463	-0.17183	5.3119	-0.0592	0.0182	-0.0073	-0.0462	0.0165	0.9585
3.3821	13.4397	746.2762	59.3654	-252.0733	-54.6397	785.6963	0.29659	4.2526	0.19482	1.268	-0.096	4.6464	-0.0592	0.0182	-0.0073	-0.0462	0.0165	0.9585
3.3957	17.0773	757.6004	58.3029	-256.8682	-51.908	792.0361	-0.0010444	3.2753	0.17791	0.93401	-0.0011385	3.5198	-0.0592	0.0182	-0.0073	-0.0462	0.0165	0.9585
3.4093	20.9303	768.7538	57.4188	-261.6785	-49.2324	797.9891	-0.28555	1.8969	0.16221	0.44226	0.085745	1.9034	-0.0592	0.0182	-0.0073	-0.0462	0.0165	0.9585
3.4229	24.8938	778.4057	56.6949	-265.9815	-46.6285	802.3052	-0.49235	0.10301	0.16224	-0.22272	0.12849	-0.23001	-0.0592	0.0182	-0.0073	-0.0462	0.0165	0.9585
3.4364	28.8329	785.3128	56.1283	-269.2762	-44.1431	803.8586	-0.54279	-2.0892	0.18501	-1.0577	0.087867	-2.8626	-0.0592	0.0182	-0.0073	-0.0462	0.0165	0.9585
3.45	32.6083	788.4599	55.7597	-271.1382	-41.8771	801.7721	-0.32607	-4.5577	0.23634	-2.0126	-0.086785	-5.8413	-0.0592	0.0182	-0.0073	-0.0462	0.0165	0.9585
3.4636	36.0844	787.3462	55.6547	-271.3209	-39.9674	795.697	0.29777	-6.9798	0.30828	-2.9567	-0.44246	-8.7607	-0.0592	0.0182	-0.0073	-0.0462	0.0165	0.9585
3.4771	39.1687	782.1305	55.9143	-269.8124	-38.5767	785.9362	1.4859	-8.758	0.39947	-3.6481	-1.0349	-10.8875	-0.0592	0.0182	-0.0073	-0.0462	0.0165	0.9585
3.4907	41.8319	773.5827	56.6212	-266.831	-37.8326	773.3847	3.381	-8.9172	0.48889	-3.698	-1.8909	-11.0339	-0.0592	0.0182	-0.0073	-0.0462	0.0165	0.9585
3.5043	44.0694	762.83	57.7922	-262.7448	-37.7857	759.2671	6.0872	-6.0483	0.55576	-2.5469	-3.0117	-7.4906	-0.0592	0.0182	-0.0073	-0.0462	0.0165	0.9585
3.5179	45.9113	750.9705	59.3699	-257.9422	-38.3949	744.7325	9.5816	1.6739	0.55516	0.52988	-4.316	1.9555	-0.0592	0.0182	-0.0073	-0.0462	0.0165	0.9585
3.5314	47.3723	738.6012	61.2079	-252.6683	-39.5211	730.4005	13.6126	16.3728	0.4351	6.3767	-5.6202	19.8822	-0.0592	0.0182	-0.0073	-0.0462	0.0165	0.9585
3.545	48.4458	725.4749	63.0659	-246.9063	-40.9311	716.0194	17.5959	40.1871	0.11001	15.8424	-6.5726	48.8747	-0.0592	0.0182	-0.0073	-0.0462	0.0165	0.9585
3.5586	49.0927	710.4288	64.5725	-240.3541	-42.2695	700.405	20.439	74.7135	-0.51524	29.5601	-6.6202	90.8496	-0.0592	0.0182	-0.0073	-0.0462	0.0165	0.9585
3.5721	49.267	691.6587	65.2702	-232.5119	-43.0976	681.7147	20.4428	120.1262	-1.559	47.6024	-4.965	145.989	-0.0592	0.0182	-0.0073	-0.0462	0.0165	0.9585
3.5857	48.9108	667.2706	64.6775	-222.8592	-42.9545	657.9827	16.0547	174.6828	-3.1553	69.2518	-0.85942	212.2186	-0.0592	0.0182	-0.0073	-0.0462	0.0165	0.9585
3.5993	47.9578	635.92	62.4487	-211.0537	-41.5087	627.7648	7.1787	234.3892	-5.3481	92.8744	5.7335	284.7745	-0.0592	0.0182	-0.0073	-0.0462	0.0165	0.9585
3.6129	46.4	597.2574	58.488	-197.0701	-38.6512	590.5637	-4.0538	293.5192	-8.1874	116.1591	13.946	356.6208	-0.0592	0.0182	-0.0073	-0.0462	0.0165	0.9585
3.6264	44.2891	552.0128	53.0186	-181.2157	-34.5508	546.9313	-15.3304	347.6167	-11.876	137.2832	23.041	422.1617	-0.0592	0.0182	-0.0073	-0.0462	0.0165	0.9585
3.64	41.6844	501.6317	46.4855	-163.9952	-29.5832	498.1362	-25.2896	395.0317	-16.229	155.5637	32.2582	479.242	-0.0592	0.0182	-0.0073	-0.0462	0.0165	0.9585
3.6536	38.5639	447.6492	39.4256	-145.9004	-24.242	445.5967	-33.2681	435.7563	-21.0408	171.0114	41.0692	527.8066	-0.0592	0.0182	-0.0073	-0.0462	0.0165	0.9585
3.6671	34.8661	391.5317	32.3239	-127.3623	-18.9924	390.7302	-39.1541	470.7566	-25.9247	184.0655	48.9969	568.9881	-0.0592	0.0182	-0.0073	-0.0462	0.0165	0.9585
3.6807	30.5431	334.7948	25.5671	-108.8056	-14.2078	335.0388	-43.0134	501.8587	-30.7051	195.5041	55.8709	604.9269	-0.0592	0.0182	-0.0073	-0.0462	0.0165	0.9585
3.6943	25.5998	279.0241	19.4864	-90.6702	-10.1999	280.0984	-44.9655	531.4006	-35.2139	206.3067	61.595	638.3294	-0.0592	0.0182	-0.0073	-0.0462	0.0165	0.9585
3.7079	20.1207	225.8406	14.3209	-73.4152	-7.175	227.5252	-45.2871	561.5096	-39.5492	217.349	66.4141	671.7215	-0.0592	0.0182	-0.0073	-0.0462	0.0165	0.9585
3.7214	14.2985	176.8397	10.2179	-57.5116	-5.2219	178.9136	-44.3506	593.2998	-43.7766	229.0995	70.5973	706.4559	-0.0592	0.0182	-0.0073	-0.0462	0.0165	0.9585
3.735	8.4646	133.435	7.1791	-43.4002	-4.2505	135.6894	-42.6501	626.6157	-48.1491	241.5137	74.6306	742.4396	-0.0592	0.0182	-0.0073	-0.0462	0.0165	0.9585
3.7486	3.0744	96.6173	5.0844	-31.4036	-4.0142	98.8654	-40.6667	660.4976	-52.6282	254.2399	78.6764	778.6289	-0.0592	0.0182	-0.0073	-0.0462	0.0165	0.9585
3.7621	-1.4136	66.7175	3.7245	-21.6431	-4.1746	68.8029	-38.7169	693.6376	-57.0248	266.7991	82.6376	813.5656	-0.0592	0.0182	-0.0073	-0.0462	0.0165	0.9585
3.7757	-4.6642	43.4324	2.8434	-14.0387	-4.3822	45.2457	-36.9401	724.5778	-60.9507	278.6593	86.1269	845.6159	-0.0592	0.0182	-0.0073	-0.0462	0.0165	0.9585
3.7893	-6.4767	26.0387	2.2145	-8.3678	-4.3589	27.5155	-35.3072	751.8136	-64.0569	289.2581	88.7292	873.0845	-0.0592	0.0182	-0.0073	-0.0462	0.0165	0.9585
3.8029	-6.8488	13.642	1.6738	-4.3429	-3.9513	14.761	-33.7312	773.9501	-66.0823	298.0488	90.1111	894.4089	-0.0592	0.0182	-0.0073	-0.0462	0.0165	0.9585
3.8164	-6.0894	5.3622	1.175	-1.6719	-3.219	6.1446	-32.1177	789.8151	-66.9489	304.5509	90.1369	908.3034	-0.0592	0.0182	-0.0073	-0.0462	0.0165	0.9585
3.83	-4.7609	0.39668	0.74365	-0.084193	-2.3687	0.90584	-30.3942	798.7041	-66.7145	308.4455	88.8351	914.0514	-0.0592	0.0182	-0.0073	-0.0462	0.0165	0.9585
3.8436	-3.3077	-2.0947	0.421	0.70099	-1.5814	-1.7743	-28.5308	800.6287	-65.5133	309.6841	86.3448	911.7719	-0.0592	0.0182	-0.0073	-0.0462	0.0165	0.9585
3.8571	-1.9883	-2.8999	0.19456	0.94276	-0.92567	-2.6923	-26.5254	796.4562	-63.5552	308.5452	82.9036	902.5567	-0.0592	0.0182	-0.0073	-0.0462	0.0165	0.9585
3.8707	-0.92905	-2.6852	0.057726	0.85778	-0.43502	-2.539	-24.4024	787.8308	-61.0786	305.6087	78.8001	888.3539	-0.0592	0.0182	-0.0073	-0.0462	0.0165	0.9585
3.8843	-0.15788	-1.9508	-0.02035	0.60658	-0.09295	-1.8343	-22.2163	776.845	-58.3812	301.6316	74.3998	871.5911	-0.0592	0.0182	-0.0073	-0.0462	0.0165	0.9585
3.8979	0.35126	-1.033	-0.049457	0.296	0.11572	-0.91931	-20.0371	765.6285	-55.7402	297.3966	70.055	854.7083	-0.0592	0.0182	-0.0073	-0.0462	0.0165	0.9585
3.9114	0.64841	-0.13498	-0.046065	-0.0091019	0.22167	-0.0035802	-17.9266	755.9878	-53.4404	293.5774	66.1174	839.7493	-0.0592	0.0182	-0.0073	-0.0462	0.0165	0.9585
3.925	0.78423	0.64018	-0.024374	-0.27409	0.25387	0.80652	-15.9092	749.1862	-51.6825	290.6603	62.8297	828.1005	-0.0592	0.0182	-0.0073	-0.0462	0.0165	0.9585
3.9386	0.81183	1.2545	0.0031396	-0.48396	0.24006	1.4754	-13.9754	745.8779	-50.5952	288.9164	60.3346	820.4391	-0.0592	0.0182	-0.0073	-0.0462	0.0165	0.9585
3.9521	0.78055	1.705	0.022477	-0.6371	0.21082	2.0014	-12.0869	746.112	-50.184	288.3993	58.6357	816.7553	-0.0592	0.0182	-0.0073	-0.0462	0.0165	0.9585
3.9657	0.72067	2.0094	0.033146	-0.73919	0.18133	2.3944	-10.2229	749.4073	-50.3847	288.967	57.6617	816.4683	-0.0592	0.0182	-0.0073	-0.0462	0.0165	0.9585
3.9793	0.65462	2.1998	0.029803	-0.80055	0.16504	2.6679	-8.3792	754.9042	-51.0393	290.3336	57.2486	818.6034	-0.0592	0.0182	-0.0073	-0.0462	0.0165	0.9585
3.9929	0.58806	2.2929	0.019361	-0.82641	0.15215	2.8192	-6.5443	761.5156	-51.958	292.1238	57.1915	821.9554	-0.0592	0.0182	-0.0073	-0.0462	0.0165	0.9585
4.0064	0.51946	2.2864	0.006203	-0.81645	0.13347	2.8326	-4.695	768.0932	-52.9344	293.934	57.2603	825.2641	-0.0592	0.0182	-0.0073	-0.0462	0.0165	0.9585
4.02	0.4365	2.1543	0.0044973	-0.76112	0.091252	2.6784	-2.8089	773.577	-53.797	295.3861	57.2589	827.3859	-0.0592	0.0182	-0.0073	-0.0462	0.0165	0.9585
4.0336	0.33332	1.8433	0.023255	-0.64149	0.017029	2.2909	-0.87434	777.1259	-54.4191	296.1739	57.0382	827.444	-0.0592	0.0182	-0.0073	-0.0462	0.0165	0.9585
